<!DOCTYPE svg PUBLIC "-//W3C//DTD SVG 1.1//EN" "http://www.w3.org/Graphics/SVG/1.1/DTD/svg11.dtd">
<!-- Uploaded to: SVG Repo, www.svgrepo.com, Transformed by: SVG Repo Mixer Tools -->
<svg fill="#000000" version="1.1" id="Layer_1" xmlns="http://www.w3.org/2000/svg" xmlns:xlink="http://www.w3.org/1999/xlink" viewBox="0 0 496 496" xml:space="preserve" width="800px" height="800px">
<g id="SVGRepo_bgCarrier" stroke-width="0"/>
<g id="SVGRepo_tracerCarrier" stroke-linecap="round" stroke-linejoin="round"/>
<g id="SVGRepo_iconCarrier"> <g> <g> <g> <path d="M468.416,208c-2.176-12.024-5.376-23.928-9.544-35.56l23.904-13.8l-40-69.28l-23.944,13.824 c-7.944-9.352-16.656-18.064-26.008-26.008l13.824-23.944l-69.28-40l-13.8,23.904c-11.64-4.176-23.544-7.368-35.568-9.552V0h-80 v27.584c-12.024,2.176-23.928,5.376-35.56,9.544l-13.8-23.904l-69.28,40l13.824,23.944c-9.352,7.944-18.064,16.656-26.008,26.008 L53.224,89.36l-40,69.28l23.904,13.8c-4.168,11.632-7.36,23.536-9.544,35.56H0v80h27.584c2.176,12.024,5.376,23.928,9.544,35.56 l-23.904,13.8l40,69.28l23.944-13.824c7.944,9.352,16.656,18.064,26.008,26.008l-13.824,23.944l69.28,40l13.8-23.904 c11.632,4.168,23.536,7.368,35.56,9.544V496h80v-27.584c12.024-2.176,23.928-5.376,35.56-9.544l13.8,23.904l69.28-40 l-13.824-23.944c9.352-7.944,18.064-16.656,26.008-26.008l23.944,13.824l40-69.28l-23.904-13.8 c4.168-11.632,7.368-23.536,9.544-35.56H496V288v-80H468.416z M480,272h-25.272l-1.016,6.832 c-2.28,15.384-6.376,30.632-12.168,45.336l-2.52,6.416l21.888,12.632l-24,41.56l-21.92-12.648l-4.296,5.384 c-9.768,12.248-20.928,23.416-33.176,33.176l-5.384,4.296l12.648,21.92l-41.56,24l-12.64-21.888l-6.416,2.52 c-14.704,5.792-29.952,9.88-45.336,12.168L272,454.728V480h-48v-25.272l-6.832-1.016c-15.384-2.28-30.632-6.376-45.336-12.168 l-6.416-2.52l-12.64,21.888l-41.56-24l12.648-21.92l-5.384-4.296c-12.248-9.768-23.416-20.928-33.176-33.176l-4.296-5.384 l-21.92,12.648l-24-41.56l21.888-12.64l-2.52-6.416c-5.792-14.704-9.88-29.952-12.168-45.336L41.272,272H16v-48h25.272 l1.016-6.832c2.28-15.384,6.376-30.632,12.168-45.336l2.52-6.416l-21.888-12.64l24-41.56l21.92,12.648l4.296-5.384 c9.768-12.248,20.928-23.416,33.176-33.176l5.384-4.296l-12.648-21.92l41.56-24l12.64,21.888l6.416-2.52 c14.704-5.792,29.952-9.88,45.336-12.168L224,41.272V16h48v25.272l6.832,1.016c15.384,2.28,30.632,6.376,45.336,12.168 l6.416,2.52l12.64-21.888l41.56,24l-12.648,21.92l5.384,4.296c12.248,9.768,23.416,20.928,33.176,33.176l4.296,5.384 l21.92-12.648l24,41.56l-21.888,12.64l2.52,6.416c5.792,14.704,9.88,29.952,12.168,45.336l1.016,6.832H480V272z"/> <rect x="240" y="368" width="16" height="16"/> <rect x="240" y="432" width="16" height="16"/> <path d="M96,170.808V341.2l144,64.008V416h16v-10.8l144-64.008V170.808l-152-67.56L96,170.808z M296,248 c0,15.64-7.696,30.36-20.576,39.368L272,289.752V304h-16v-33.472c9.288-3.312,16-12.112,16-22.528c0-13.232-10.768-24-24-24 s-24,10.768-24,24c0,10.416,6.712,19.216,16,22.528V304h-16v-14.248l-3.424-2.384C207.696,278.36,200,263.64,200,248 c0-26.472,21.528-48,48-48S296,221.528,296,248z M272,320v16h-48v-16H272z M240,248c0-4.416,3.584-8,8-8s8,3.584,8,8 s-3.584,8-8,8C243.584,256,240,252.416,240,248z M240,124.312v60.24c-17.224,2.16-32.312,11.184-42.488,24.248L123.696,176 L240,124.312z M384,330.808L248,391.24L112,330.8V188.312l77.256,34.336C185.888,230.432,184,239,184,248 c0,19.448,8.896,37.8,24,49.92V304h-16v16h16v32h80v-32h16v-16h-16v-6.08c15.104-12.128,24-30.48,24-49.92 c0-9-1.888-17.568-5.256-25.352L384,188.312V330.808z M256,124.312L372.304,176l-73.816,32.808 c-10.176-13.072-25.264-22.088-42.488-24.256V124.312z"/> </g> </g> </g> </g>
</svg>