<!DOCTYPE svg PUBLIC "-//W3C//DTD SVG 1.1//EN" "http://www.w3.org/Graphics/SVG/1.1/DTD/svg11.dtd">
<!-- Uploaded to: SVG Repo, www.svgrepo.com, Transformed by: SVG Repo Mixer Tools -->
<svg fill="#000000" height="184px" width="184px" version="1.1" id="Capa_1" xmlns="http://www.w3.org/2000/svg" xmlns:xlink="http://www.w3.org/1999/xlink" viewBox="0 0 285.834 285.834" xml:space="preserve">
<g id="SVGRepo_bgCarrier" stroke-width="0"/>
<g id="SVGRepo_tracerCarrier" stroke-linecap="round" stroke-linejoin="round"/>
<g id="SVGRepo_iconCarrier"> <path d="M244.212,0h-33.587h-67.708H75.208H59.583H41.622h-3.705c-0.923,0-1.803,0.175-2.62,0.48C15.337,3.535,0,20.821,0,41.621 v101.296v67.708v33.588c0,22.95,18.671,41.621,41.621,41.621h202.591c22.95,0,41.621-18.671,41.621-41.621v-33.588v-67.708V75.209 V41.621C285.833,18.671,267.163,0,244.212,0z M270.833,203.125h-52.708v-52.708h52.708V203.125z M150.417,82.709h60.208h60.208 v52.708h-60.208h-60.208V82.709z M270.833,41.621v26.088h-52.708V15h26.087C258.892,15,270.833,26.942,270.833,41.621z M203.125,15 v52.709h-60.208H82.708V15h60.208H203.125z M41.622,15h17.962h8.125v52.709H50.729c-4.142,0-7.5,3.357-7.5,7.5s3.358,7.5,7.5,7.5 h24.479h60.208v52.708H75.208H37.917H15V41.621C15,26.942,26.942,15,41.622,15z M67.708,203.125H26.25H15v-52.708h22.917h29.792 V203.125z M15,244.213v-26.088h11.25h48.958h60.208v52.709H41.622C26.942,270.834,15,258.892,15,244.213z M244.212,270.834h-93.795 v-60.209c0-4.143-3.358-7.5-7.5-7.5H82.708v-52.708h60.208h60.208v52.708h-26.206c-4.142,0-7.5,3.357-7.5,7.5s3.358,7.5,7.5,7.5 h93.914v26.088C270.833,258.892,258.892,270.834,244.212,270.834z"/> </g>
</svg>