<svg width="800" height="800" viewBox="0 0 800 800" fill="none" xmlns="http://www.w3.org/2000/svg">
<path d="M591 175H206V667H591V175Z" fill="white"/>
<path fill-rule="evenodd" clip-rule="evenodd" d="M66.6666 400C66.6666 215.905 215.905 66.6667 400 66.6667C584.093 66.6667 733.333 215.905 733.333 400C733.333 584.093 584.093 733.333 400 733.333C215.905 733.333 66.6666 584.093 66.6666 400ZM399.997 200C326.359 200 266.664 259.695 266.664 333.333C266.664 406.97 326.359 466.667 399.997 466.667C473.633 466.667 533.33 406.97 533.33 333.333C533.33 259.695 473.633 200 399.997 200ZM570.383 533.247C595.643 549.513 594.41 584.97 571.407 604.293C525.057 643.22 465.27 666.667 400.003 666.667C335.17 666.667 275.738 643.53 229.519 605.06C206.31 585.743 205.081 550.107 230.45 533.733C238.348 528.637 246.949 524.17 256.283 520.323C293.839 504.84 341.807 500 400 500C458.487 500 506.727 504.53 544.38 519.847C553.787 523.673 562.447 528.137 570.383 533.247Z" fill="black"/>
</svg>
